<?xml version="1.0" encoding="UTF-8"?>
<svg xmlns="http://www.w3.org/2000/svg" xmlns:xlink="http://www.w3.org/1999/xlink" viewBox="0 0 175.21 98">
  <defs>
    <style>
      .cls-1 {
        mask: url(#mask);
      }

      .cls-2 {
        filter: url(#luminosity-invert);
      }

      .cls-3 {
        filter: url(#outer-glow-1);
      }

      .cls-4 {
        fill: url(#linear-gradient);
      }

      .cls-5 {
        fill: #ff2026;
      }
    </style>
    <filter id="outer-glow-1" x="3" y="7.33" width="163" height="85" filterUnits="userSpaceOnUse">
      <feOffset dx="0" dy="0"/>
      <feGaussianBlur result="blur" stdDeviation="0"/>
      <feFlood flood-color="#00c9ff" flood-opacity=".75"/>
      <feComposite in2="blur" operator="in"/>
      <feComposite in="SourceGraphic"/>
    </filter>
    <filter id="luminosity-invert" x="0" y="0" width="175.21" height="95.3" color-interpolation-filters="sRGB" filterUnits="userSpaceOnUse">
      <feColorMatrix result="cm" values="-1 0 0 0 1 0 -1 0 0 1 0 0 -1 0 1 0 0 0 1 0"/>
    </filter>
    <mask id="mask" x="0" y="0" width="175.21" height="95.3" maskUnits="userSpaceOnUse">
      <g class="cls-2">
        <g>
          <path d="M21.89,25.55c5.8.7,9.65,3.05,9.65,7.8,0,3.35-1.85,5.95-4.7,7.5-2.55,1.45-6.4,2.15-10.55,2.15H3.59v-1.75c3.85-.35,4.3-.7,4.3-4.95v-19.1c0-4.25-.45-4.6-4-4.95v-1.75h14.6c3.85,0,6.35.5,8.25,1.75,1.85,1.2,2.95,3.2,2.95,5.7,0,4.75-4.2,6.7-7.8,7.4v.2ZM15.64,24.85c4.8,0,6.95-1.9,6.95-6.05,0-4.5-2.7-6.2-5.4-6.2-1.1,0-1.95.3-2.25.6-.35.35-.45,1.1-.45,2.15v9.5h1.15ZM14.49,36.2c0,3.7,1,4.75,3.65,4.7,2.8-.05,5.95-2.1,5.95-7s-2.9-7.05-8.6-7.05h-1v9.35Z"/>
          <path d="M55.89,38.05c-3.05,4.55-6.95,5.55-9,5.55-6.65,0-10.35-4.95-10.35-10.7,0-3.8,1.6-7,3.7-9.05,2.2-2.2,4.95-3.55,7.7-3.55,4.6,0,8.15,3.95,8.1,8.05,0,1-.3,1.65-1.45,1.8-.9.1-7,.6-11.9.8.25,5.35,3.2,8.05,6.75,8.05,1.95,0,3.8-.65,5.55-2.15l.9,1.2ZM42.94,28.6c2.05-.05,3.9-.1,5.95-.15.75-.05,1-.15,1.05-1,0-2.55-1.1-5.15-3.05-5.15s-3.65,2.3-3.95,6.3Z"/>
          <path d="M82.69,22.5c-2.4.4-2.9.9-4.15,3.6-1.25,2.65-2.9,6.8-5.8,13.75-3.35,8.1-4.35,11.2-5.25,14-.35,1.1-1,1.35-1.85,1.35-1.35,0-3.5-1.35-3.5-3.15,0-.8.35-1.3,1.35-1.95,2-1.05,3.15-2,4.1-3.55.45-.85.75-1.5.95-2.05.25-.8.1-1.55-.2-2.35-2.6-7.25-5.35-14.35-6.3-16.55-.9-2.15-1.5-2.75-3.85-3.1v-1.6h12.4v1.6c-2.15.4-2.55.7-2,2.3l3.75,11.1c1.15-2.8,2.85-7.8,3.75-10.65.55-1.65.05-2.3-2.4-2.75v-1.6h9v1.6Z"/>
          <path d="M107.24,31.55c0,8.05-5.75,12.05-11.6,12.05-7.85,0-11.7-5.7-11.7-11.15,0-8.05,6.35-12.15,11.9-12.15,7,0,11.4,5.25,11.4,11.25ZM91.09,30.65c0,6.15,1.95,11,5.1,11,1.9,0,3.9-1.25,3.9-8.6,0-6.95-1.75-10.8-4.9-10.8-2.1,0-4.1,2.65-4.1,8.4Z"/>
          <path d="M124.84,43v-1.6c2.1-.35,2.35-.5,2.35-4.05v-8.5c0-3.6-1.65-4.7-3.45-4.7-1.25,0-2.4.55-3.7,1.55v12.1c0,3.1.3,3.25,2.35,3.6v1.6h-12.05v-1.6c3.1-.45,3.35-.5,3.35-3.85v-10.35c0-3-.25-3.2-2.7-3.65v-1.45c2.85-.35,6.1-1.05,9.05-1.9v3.7c1-.7,2-1.5,3.1-2.2,1.5-.95,2.45-1.4,3.9-1.4,4.05,0,6.55,3,6.55,8v9.45c0,3.15.3,3.25,2.9,3.65v1.6h-11.65Z"/>
          <path d="M165.24,41.7c-1.2.2-5.9.8-9.85,1.95v-2.9l-3,1.95c-1.25.75-1.95.9-2.55.9-4.25,0-10.2-3.5-10.2-10.95,0-6.8,5.9-12.35,13.7-12.35.4,0,.95.1,2.05.25v-6.05c0-2.7-.3-2.95-3.35-3.3v-1.55c3.2-.4,7.2-1.05,9.75-1.8v28.85c0,2.85.25,3.05,2.35,3.3l1.1.1v1.6ZM155.39,25c-.8-1.75-2.15-2.6-3.6-2.6-1.2,0-5.05,1.3-5.05,8.9.05,6.15,3.6,8.5,5.9,8.5.9,0,1.65-.1,2.75-.8v-14Z"/>
          <path d="M34.85,71.5c-.65,2.4-1.95,6.2-2.8,7.95-1.3.3-5.9,1.3-9.3,1.3-13.3,0-18.85-8.65-18.85-16.6,0-10.25,7.9-17.4,19.85-17.4,4.05,0,7.75,1.05,9.1,1.35.45,2.75.8,5.05,1.15,8.2l-1.85.35c-1.65-5.95-5.5-7.7-9.35-7.7-7.25,0-11.25,6.85-11.25,14.2,0,9.2,4.95,15.25,11.75,15.25,4.15,0,7.25-2.65,9.8-7.7l1.75.8Z"/>
          <path d="M37.64,80v-1.6c2.95-.45,3.25-.7,3.25-3.9v-22.9c0-3-.25-3.15-3-3.5v-1.45c2.85-.35,6.55-1,9.35-1.8v29.65c0,3.35.3,3.55,3.35,3.9v1.6h-12.95Z"/>
          <path d="M69.89,80.6c-1.35,0-2.4-.45-3.05-1.05-.7-.6-1.05-1.25-1.3-1.85-1.9,1.25-4.25,2.9-5.2,2.9-4.25,0-6.75-3.3-6.75-6.4,0-2.6,1.2-3.85,3.8-4.8,2.95-1.1,6.8-2.3,7.95-3.3v-1.5c0-3.15-1.14-4.29-2.98-4.51-.65-.08-1.33.15-1.78.75-.6.7-.99,1.66-1.39,3.21-.35,1.3-1.05,1.7-2.1,1.7-1.3,0-3.1-1.2-3.1-2.5,0-.9.6-1.55,1.75-2.4,1.9-1.3,5.45-3.05,8.3-3.55,2.05,0,3.55.45,4.9,1.45,2.15,1.65,2.6,3.8,2.6,6.6v8.25c0,2.3.8,2.95,1.6,2.95.6,0,1.15-.2,1.7-.4l.5,1.6-5.45,2.85ZM65.34,68.05c-.9.45-1.75,1-2.75,1.55-1.55.8-2.35,1.7-2.35,3.4,0,2.8,1.85,3.85,3,3.85.7,0,1.25-.2,2.1-.8v-8Z"/>
          <path d="M87.14,62.55c1.8-3.1,3.75-5.25,5.6-5.25,2,0,3.35,1.4,3.35,3.1,0,1.8-1.1,3.2-2.45,3.7-.7.25-1.2.1-1.55-.2-.85-.7-1.45-1.05-2.3-1.05-.95,0-1.95.65-2.8,2.6v9.3c0,3.1.3,3.3,4.15,3.65v1.6h-13.7v-1.6c2.7-.3,3.2-.55,3.2-3.65v-10.9c0-2.55-.4-2.75-2.7-3.3v-1.4c3-.4,5.95-.95,9.05-1.9v5.3h.15Z"/>
          <path d="M98.49,80v-1.6c2.9-.35,3.2-.55,3.2-4.1v-9.9c0-3.3-.35-3.45-2.75-3.85v-1.45c3-.35,6.3-1,9.1-1.8v17c0,3.45.25,3.7,3.25,4.1v1.6h-12.8ZM100.94,50.65c0-2,1.65-3.5,3.55-3.5,2,0,3.55,1.5,3.55,3.5s-1.55,3.5-3.6,3.5c-1.85,0-3.5-1.6-3.5-3.5Z"/>
          <path d="M124.79,80.05c-.9.35-1.7.55-2.05.55-3.85,0-6.1-1.8-6.1-6.3v-14h-3.15l-.25-.6,1.4-1.8h2v-3.65l5.65-3.9.7.3v7.25h4.9c.6.55.5,2-.3,2.4h-4.6v12.35c0,3.9,1.8,4.35,2.85,4.35.85,0,1.65-.2,2.5-.6l.5,1.75-4.05,1.9Z"/>
          <path d="M154.14,59.5c-2.4.4-2.9.9-4.15,3.6-1.25,2.65-2.9,6.8-5.8,13.75-3.35,8.1-4.35,11.2-5.25,14-.35,1.1-1,1.35-1.85,1.35-1.35,0-3.5-1.35-3.5-3.15,0-.8.35-1.3,1.35-1.95,2-1.05,3.15-2,4.1-3.55.45-.85.75-1.5.95-2.05.25-.8.1-1.55-.2-2.35-2.6-7.25-5.35-14.35-6.3-16.55-.9-2.15-1.5-2.75-3.85-3.1v-1.6h12.4v1.6c-2.15.4-2.55.7-2,2.3l3.75,11.1c1.15-2.8,2.85-7.8,3.75-10.65.55-1.65.05-2.3-2.4-2.75v-1.6h9v1.6Z"/>
        </g>
      </g>
    </mask>
    <linearGradient id="linear-gradient" x1="81.7" y1="103.89" x2="93.52" y2="-8.59" gradientUnits="userSpaceOnUse">
      <stop offset="0" stop-color="#0049bb"/>
      <stop offset=".11" stop-color="#0045b0"/>
      <stop offset=".29" stop-color="#003a95"/>
      <stop offset=".53" stop-color="#002868"/>
      <stop offset=".82" stop-color="#00102b"/>
      <stop offset="1" stop-color="#000"/>
    </linearGradient>
  </defs>
  <g id="Layer_2_copy_2" data-name="Layer 2 copy 2" class="cls-3">
    <g>
      <path class="cls-5" d="M21.89,25.55c5.8.7,9.65,3.05,9.65,7.8,0,3.35-1.85,5.95-4.7,7.5-2.55,1.45-6.4,2.15-10.55,2.15H3.59v-1.75c3.85-.35,4.3-.7,4.3-4.95v-19.1c0-4.25-.45-4.6-4-4.95v-1.75h14.6c3.85,0,6.35.5,8.25,1.75,1.85,1.2,2.95,3.2,2.95,5.7,0,4.75-4.2,6.7-7.8,7.4v.2ZM15.64,24.85c4.8,0,6.95-1.9,6.95-6.05,0-4.5-2.7-6.2-5.4-6.2-1.1,0-1.95.3-2.25.6-.35.35-.45,1.1-.45,2.15v9.5h1.15ZM14.49,36.2c0,3.7,1,4.75,3.65,4.7,2.8-.05,5.95-2.1,5.95-7s-2.9-7.05-8.6-7.05h-1v9.35Z"/>
      <path class="cls-5" d="M55.89,38.05c-3.05,4.55-6.95,5.55-9,5.55-6.65,0-10.35-4.95-10.35-10.7,0-3.8,1.6-7,3.7-9.05,2.2-2.2,4.95-3.55,7.7-3.55,4.6,0,8.15,3.95,8.1,8.05,0,1-.3,1.65-1.45,1.8-.9.1-7,.6-11.9.8.25,5.35,3.2,8.05,6.75,8.05,1.95,0,3.8-.65,5.55-2.15l.9,1.2ZM42.94,28.6c2.05-.05,3.9-.1,5.95-.15.75-.05,1-.15,1.05-1,0-2.55-1.1-5.15-3.05-5.15s-3.65,2.3-3.95,6.3Z"/>
      <path class="cls-5" d="M82.69,22.5c-2.4.4-2.9.9-4.15,3.6-1.25,2.65-2.9,6.8-5.8,13.75-3.35,8.1-4.35,11.2-5.25,14-.35,1.1-1,1.35-1.85,1.35-1.35,0-3.5-1.35-3.5-3.15,0-.8.35-1.3,1.35-1.95,2-1.05,3.15-2,4.1-3.55.45-.85.75-1.5.95-2.05.25-.8.1-1.55-.2-2.35-2.6-7.25-5.35-14.35-6.3-16.55-.9-2.15-1.5-2.75-3.85-3.1v-1.6h12.4v1.6c-2.15.4-2.55.7-2,2.3l3.75,11.1c1.15-2.8,2.85-7.8,3.75-10.65.55-1.65.05-2.3-2.4-2.75v-1.6h9v1.6Z"/>
      <path class="cls-5" d="M107.24,31.55c0,8.05-5.75,12.05-11.6,12.05-7.85,0-11.7-5.7-11.7-11.15,0-8.05,6.35-12.15,11.9-12.15,7,0,11.4,5.25,11.4,11.25ZM91.09,30.65c0,6.15,1.95,11,5.1,11,1.9,0,3.9-1.25,3.9-8.6,0-6.95-1.75-10.8-4.9-10.8-2.1,0-4.1,2.65-4.1,8.4Z"/>
      <path class="cls-5" d="M124.84,43v-1.6c2.1-.35,2.35-.5,2.35-4.05v-8.5c0-3.6-1.65-4.7-3.45-4.7-1.25,0-2.4.55-3.7,1.55v12.1c0,3.1.3,3.25,2.35,3.6v1.6h-12.05v-1.6c3.1-.45,3.35-.5,3.35-3.85v-10.35c0-3-.25-3.2-2.7-3.65v-1.45c2.85-.35,6.1-1.05,9.05-1.9v3.7c1-.7,2-1.5,3.1-2.2,1.5-.95,2.45-1.4,3.9-1.4,4.05,0,6.55,3,6.55,8v9.45c0,3.15.3,3.25,2.9,3.65v1.6h-11.65Z"/>
      <path class="cls-5" d="M165.24,41.7c-1.2.2-5.9.8-9.85,1.95v-2.9l-3,1.95c-1.25.75-1.95.9-2.55.9-4.25,0-10.2-3.5-10.2-10.95,0-6.8,5.9-12.35,13.7-12.35.4,0,.95.1,2.05.25v-6.05c0-2.7-.3-2.95-3.35-3.3v-1.55c3.2-.4,7.2-1.05,9.75-1.8v28.85c0,2.85.25,3.05,2.35,3.3l1.1.1v1.6ZM155.39,25c-.8-1.75-2.15-2.6-3.6-2.6-1.2,0-5.05,1.3-5.05,8.9.05,6.15,3.6,8.5,5.9,8.5.9,0,1.65-.1,2.75-.8v-14Z"/>
      <path class="cls-5" d="M34.85,71.5c-.65,2.4-1.95,6.2-2.8,7.95-1.3.3-5.9,1.3-9.3,1.3-13.3,0-18.85-8.65-18.85-16.6,0-10.25,7.9-17.4,19.85-17.4,4.05,0,7.75,1.05,9.1,1.35.45,2.75.8,5.05,1.15,8.2l-1.85.35c-1.65-5.95-5.5-7.7-9.35-7.7-7.25,0-11.25,6.85-11.25,14.2,0,9.2,4.95,15.25,11.75,15.25,4.15,0,7.25-2.65,9.8-7.7l1.75.8Z"/>
      <path class="cls-5" d="M37.64,80v-1.6c2.95-.45,3.25-.7,3.25-3.9v-22.9c0-3-.25-3.15-3-3.5v-1.45c2.85-.35,6.55-1,9.35-1.8v29.65c0,3.35.3,3.55,3.35,3.9v1.6h-12.95Z"/>
      <path class="cls-5" d="M69.89,80.6c-1.35,0-2.4-.45-3.05-1.05-.7-.6-1.05-1.25-1.3-1.85-1.9,1.25-4.25,2.9-5.2,2.9-4.25,0-6.75-3.3-6.75-6.4,0-2.6,1.2-3.85,3.8-4.8,2.95-1.1,6.8-2.3,7.95-3.3v-1.5c0-3.15-1.2-4.9-3.05-4.9-.65,0-1.2.3-1.65.9-.6.7-1.05,1.9-1.45,3.45-.35,1.3-1.05,1.7-2.1,1.7-1.3,0-3.1-1.2-3.1-2.5,0-.9.6-1.55,1.75-2.4,1.9-1.3,5.45-3.05,8.3-3.55,2.05,0,3.55.45,4.9,1.45,2.15,1.65,2.6,3.8,2.6,6.6v8.25c0,2.3.8,2.95,1.6,2.95.6,0,1.15-.2,1.7-.4l.5,1.6-5.45,2.85ZM65.34,68.05c-.9.45-1.75,1-2.75,1.55-1.55.8-2.35,1.7-2.35,3.4,0,2.8,1.85,3.85,3,3.85.7,0,1.25-.2,2.1-.8v-8Z"/>
      <path class="cls-5" d="M87.14,62.55c1.8-3.1,3.75-5.25,5.6-5.25,2,0,3.35,1.4,3.35,3.1,0,1.8-1.1,3.2-2.45,3.7-.7.25-1.2.1-1.55-.2-.85-.7-1.45-1.05-2.3-1.05-.95,0-1.95.65-2.8,2.6v9.3c0,3.1.3,3.3,4.15,3.65v1.6h-13.7v-1.6c2.7-.3,3.2-.55,3.2-3.65v-10.9c0-2.55-.4-2.75-2.7-3.3v-1.4c3-.4,5.95-.95,9.05-1.9v5.3h.15Z"/>
      <path class="cls-5" d="M98.49,80v-1.6c2.9-.35,3.2-.55,3.2-4.1v-9.9c0-3.3-.35-3.45-2.75-3.85v-1.45c3-.35,6.3-1,9.1-1.8v17c0,3.45.25,3.7,3.25,4.1v1.6h-12.8ZM100.94,50.65c0-2,1.65-3.5,3.55-3.5,2,0,3.55,1.5,3.55,3.5s-1.55,3.5-3.6,3.5c-1.85,0-3.5-1.6-3.5-3.5Z"/>
      <path class="cls-5" d="M124.79,80.05c-.9.35-1.7.55-2.05.55-3.85,0-6.1-1.8-6.1-6.3v-14h-3.15l-.25-.6,1.4-1.8h2v-3.65l5.65-3.9.7.3v7.25h4.9c.6.55.5,2-.3,2.4h-4.6v12.35c0,3.9,1.8,4.35,2.85,4.35.85,0,1.65-.2,2.5-.6l.5,1.75-4.05,1.9Z"/>
      <path class="cls-5" d="M154.14,59.5c-2.4.4-2.9.9-4.15,3.6-1.25,2.65-2.9,6.8-5.8,13.75-3.35,8.1-4.35,11.2-5.25,14-.35,1.1-1,1.35-1.85,1.35-1.35,0-3.5-1.35-3.5-3.15,0-.8.35-1.3,1.35-1.95,2-1.05,3.15-2,4.1-3.55.45-.85.75-1.5.95-2.05.25-.8.1-1.55-.2-2.35-2.6-7.25-5.35-14.35-6.3-16.55-.9-2.15-1.5-2.75-3.85-3.1v-1.6h12.4v1.6c-2.15.4-2.55.7-2,2.3l3.75,11.1c1.15-2.8,2.85-7.8,3.75-10.65.55-1.65.05-2.3-2.4-2.75v-1.6h9v1.6Z"/>
    </g>
  </g>
  <g id="Layer_2_copy" data-name="Layer 2 copy">
    <g class="cls-1">
      <g id="Layer_5" data-name="Layer 5">
        <rect class="cls-4" width="175.21" height="95.3"/>
      </g>
    </g>
  </g>
</svg>